# xmcd
#
# Track frame offsets:
#	150
#	13644
#	32769
#	45216
#	61704
#	78035
#	91798
#	109678
#	124056
#	138124
#	156967
#
# Disc length: 2442 seconds
#
# Revision: 0
# Processed by: cddbd v1.5.1PL0 Copyright (c) Steve Scherf et al.
# Submitted via: dBpowerAMP V4.0
#
DISCID=7209880b
DTITLE=Dean Miller - Just Me
DYEAR=2004
DGENRE=Country
TTITLE0=The Gun Ain't Loaded
TTITLE1=Between Me and Your Love
TTITLE2=Love Is A Game
TTITLE3=That's Just Me
TTITLE4=Just the Way You Never Used to Be
TTITLE5=How Long 'Till You Love Me
TTITLE6=Praying For Rain
TTITLE7=Eighth Wonder of the World
TTITLE8=I'm Gonna Love You Anyway
TTITLE9=My Heart Is In Your Hands
TTITLE10=Carry My Kisses
EXTD=
EXTT0=
EXTT1=
EXTT2=
EXTT3=
EXTT4=
EXTT5=
EXTT6=
EXTT7=
EXTT8=
EXTT9=
EXTT10=
PLAYORDER=
